<?xml version="1.0" encoding="UTF-8"?>
<svg version="1.1" xmlns="http://www.w3.org/2000/svg" width="2580" height="1414">
<path d="M0 0 C851.4 0 1702.8 0 2580 0 C2580 466.62 2580 933.24 2580 1414 C1728.6 1414 877.2 1414 0 1414 C0 947.38 0 480.76 0 0 Z " fill="#FEFEFE" transform="translate(0,0)"/>
<path d="M0 0 C0.82233124 0.00054382 1.64466248 0.00108765 2.49191284 0.00164795 C31.27102974 0.08852358 58.13293147 6.07713821 84.5625 17.375 C85.26826172 17.67631836 85.97402344 17.97763672 86.70117188 18.28808594 C118.42360472 32.05195143 147.1047164 54.32803051 168.5625 81.375 C169.21863281 82.16390625 169.87476563 82.9528125 170.55078125 83.765625 C186.34954551 102.88877854 198.24641178 125.06780361 206.5625 148.375 C206.92698242 149.38191895 206.92698242 149.38191895 207.29882812 150.40917969 C211.68229307 162.72908899 214.21576465 175.53604269 216.5625 188.375 C216.76601074 189.47352295 216.76601074 189.47352295 216.97363281 190.59423828 C222.56778071 222.41784866 218.33524282 256.88381682 208.5625 287.375 C208.2845459 288.25784668 208.0065918 289.14069336 207.72021484 290.05029297 C200.76555437 311.73108374 190.3159076 332.21295064 176.5625 350.375 C175.85480469 351.31214844 175.14710938 352.24929688 174.41796875 353.21484375 C170.37120197 358.39502449 166.01996163 363.27871944 161.5859375 368.12890625 C159.98838072 369.90225596 158.47866508 371.69183982 157 373.5625 C154.44793933 376.50718539 151.74169036 378.95153947 148.77734375 381.46875 C146.43757711 383.4825174 144.19491779 385.58205943 141.9375 387.6875 C107.78295771 418.44227928 57.73842163 439.08325608 11.703125 439.6484375 C10.30164719 439.66722961 10.30164719 439.66722961 8.87185669 439.68640137 C-12.1225541 439.91325756 -31.99206165 439.62851137 -52.4375 434.375 C-53.7980249 434.03807129 -53.7980249 434.03807129 -55.18603516 433.69433594 C-105.71120646 420.88356174 -151.61417239 387.86056904 -181.4375 345.375 C-182.09685547 344.45871826 -182.09685547 344.45871826 -182.76953125 343.52392578 C-215.45079358 297.99478049 -227.39010738 241.50972258 -218.94897461 186.43286133 C-217.08845978 175.30973569 -214.58127056 164.63577197 -211 153.9375 C-210.78640839 153.29769196 -210.57281677 152.65788391 -210.35275269 151.99868774 C-196.71792328 111.5143676 -169.64950144 73.20944724 -135.4375 47.375 C-134.80005859 46.88821777 -134.16261719 46.40143555 -133.50585938 45.89990234 C-94.8234675 16.5130714 -48.64399971 -0.12245263 0 0 Z " fill="#F95B00" transform="translate(1631.4375,393.625)"/>
<path d="M0 0 C1.5713044 1.34098134 3.11933132 2.70453296 4.66259766 4.07763672 C5.18885742 4.53525391 5.71511719 4.99287109 6.25732422 5.46435547 C34.68403715 30.23149767 53.63789523 64.37983414 57.66259766 102.07763672 C57.94076121 107.04014032 57.9975033 111.98306512 57.97509766 116.95263672 C57.96945801 118.27183105 57.96381836 119.59102539 57.95800781 120.95019531 C57.84052392 130.37333377 57.15910587 138.95541469 54.66259766 148.07763672 C54.38053467 149.19162842 54.38053467 149.19162842 54.09277344 150.328125 C49.46321811 168.50382552 41.97822592 186.02854251 30.66259766 201.07763672 C29.72867187 202.32480469 29.72867187 202.32480469 28.77587891 203.59716797 C20.45493982 214.31480757 11.5044395 223.89061539 0.66259766 232.07763672 C-0.11341797 232.66931641 -0.88943359 233.26099609 -1.68896484 233.87060547 C-14.51544881 243.24380529 -28.4040633 249.82593264 -43.33740234 255.07763672 C-44.24876953 255.40505859 -45.16013672 255.73248047 -46.09912109 256.06982422 C-48.49742771 256.85975883 -50.88017737 257.49537327 -53.33740234 258.07763672 C-55.0525 258.49335937 -55.0525 258.49335937 -56.80224609 258.91748047 C-91.54851373 266.56373996 -127.64777684 257.85550318 -157.33740234 239.07763672 C-165.28033913 233.82361318 -172.43755449 227.61932453 -179.33740234 221.07763672 C-180.29517578 220.18431641 -181.25294922 219.29099609 -182.23974609 218.37060547 C-203.11373004 198.51362851 -218.66135515 170.63630512 -223.33740234 142.07763672 C-223.52044922 140.96388672 -223.70349609 139.85013672 -223.89208984 138.70263672 C-224.61312111 132.6683681 -224.52340462 126.58487363 -224.52270508 120.51635742 C-224.52487952 118.4122252 -224.54305198 116.30862894 -224.56201172 114.20458984 C-224.65242369 93.03402786 -219.61895085 73.02948969 -210.33740234 54.07763672 C-210.03995117 53.454375 -209.7425 52.83111328 -209.43603516 52.18896484 C-193.06871874 18.18033549 -162.52251244 -8.65308418 -127.24414062 -21.69628906 C-123.32750737 -23.00585363 -119.36049696 -24.00223945 -115.33740234 -24.92236328 C-113.62423828 -25.34775391 -113.62423828 -25.34775391 -111.87646484 -25.78173828 C-73.54763296 -35.07889201 -30.53654095 -25.1684719 0 0 Z " fill="#FEFEFE" transform="translate(1714.33740234375,497.92236328125)"/>
<path d="M0 0 C5.08975725 4.6907569 9.95643174 9.59874508 14.73779297 14.6015625 C15.81673828 15.72498047 15.81673828 15.72498047 16.91748047 16.87109375 C18.61279297 18.7265625 18.61279297 18.7265625 20.73779297 21.6015625 C19.60124256 25.01121372 18.87927603 25.50200905 16.04638672 27.53515625 C15.27480225 28.09533447 14.50321777 28.6555127 13.70825195 29.23266602 C12.87237549 29.82877686 12.03649902 30.4248877 11.17529297 31.0390625 C9.42480211 32.30661407 7.67480947 33.57485393 5.92529297 34.84375 C5.04744141 35.47764648 4.16958984 36.11154297 3.26513672 36.76464844 C-0.29799908 39.35439281 -3.81134662 42.00745558 -7.32470703 44.6640625 C-9.26935642 46.12112711 -11.21594684 47.57556138 -13.16308594 49.02929688 C-14.65796483 50.1489782 -16.14947352 51.27316508 -17.63867188 52.40039062 C-20.08751728 54.25065082 -22.54853202 56.08361325 -25.01220703 57.9140625 C-25.7754126 58.49615479 -26.53861816 59.07824707 -27.32495117 59.67797852 C-28.04158936 60.20576904 -28.75822754 60.73355957 -29.49658203 61.27734375 C-30.12790039 61.75083252 -30.75921875 62.22432129 -31.40966797 62.7121582 C-33.26220703 63.6015625 -33.26220703 63.6015625 -35.18017578 63.4519043 C-37.82658313 62.37106039 -39.98455934 60.94243273 -42.34033203 59.3203125 C-43.82243164 58.31073486 -43.82243164 58.31073486 -45.33447266 57.28076172 C-46.90745117 56.20205811 -46.90745117 56.20205811 -48.51220703 55.1015625 C-71.95631508 39.28903649 -94.92903828 26.49172406 -124.26220703 29.6015625 C-136.78372648 32.49015195 -146.4103118 39.83673957 -153.26220703 50.6015625 C-159.35440781 62.07493797 -162.69225514 73.98309299 -159.42236328 86.92578125 C-152.91766726 104.03072263 -137.32793699 112.20242205 -121.50830078 119.3203125 C-113.50551448 122.83676069 -105.42351542 126.17126859 -97.35400391 129.53100586 C-79.35789655 137.03058072 -61.35118837 144.63600145 -44.05957031 153.66601562 C-42.16373258 154.65281951 -40.25828808 155.61939464 -38.35205078 156.5859375 C-12.6068104 169.78673666 7.33015628 190.01698521 17.05810547 217.48339844 C18.85299947 223.07696897 19.88684223 228.79546018 20.73779297 234.6015625 C20.92083984 235.82488281 21.10388672 237.04820312 21.29248047 238.30859375 C25.3242096 271.86207605 18.22821834 308.00731694 -1.85986328 335.546875 C-17.04667429 354.85758428 -36.96065208 368.66646645 -60.26220703 376.6015625 C-61.09993652 376.89160156 -61.93766602 377.18164062 -62.80078125 377.48046875 C-97.91888625 389.45155393 -135.39955199 390.635088 -170.26220703 376.6015625 C-171.19685791 376.23490479 -171.19685791 376.23490479 -172.15039062 375.86083984 C-192.62220638 367.75646006 -211.01967492 355.5940841 -227.10986328 340.6015625 C-229.09089897 338.76074531 -231.12657957 337.02431607 -233.19970703 335.2890625 C-239.83605091 329.51950639 -246.13416685 322.73993073 -251.26220703 315.6015625 C-249.68378465 311.29399691 -246.3770509 308.87042654 -242.94970703 306.0390625 C-242.32668701 305.51530029 -241.70366699 304.99153809 -241.06176758 304.4519043 C-239.76718507 303.36406245 -238.47036462 302.27887863 -237.17138672 301.19628906 C-235.38344859 299.70283486 -233.60572809 298.19839349 -231.83251953 296.6875 C-225.87180819 291.61008669 -219.86174798 286.60304822 -213.76611328 281.6875 C-210.74466248 279.17040994 -207.90630692 276.48668354 -205.11376953 273.71875 C-203.26220703 272.6015625 -203.26220703 272.6015625 -200.95410156 272.86987305 C-198.0937194 273.64735947 -195.90881211 274.71774954 -193.34033203 276.19140625 C-191.93920166 276.98937622 -191.93920166 276.98937622 -190.50976562 277.8034668 C-189.02597412 278.66258667 -189.02597412 278.66258667 -187.51220703 279.5390625 C-185.96847412 280.4204187 -185.96847412 280.4204187 -184.39355469 281.31958008 C-179.80449095 283.94745971 -175.23438083 286.60219691 -170.70751953 289.3359375 C-155.38970227 298.58600205 -139.51900775 306.66120011 -122.26220703 311.6015625 C-121.35535156 311.86658569 -121.35535156 311.86658569 -120.43017578 312.13696289 C-105.96787137 315.23626079 -89.5963171 313.84069358 -76.96533203 306.21484375 C-68.18480635 300.19061091 -63.01170239 292.4407555 -59.26220703 282.6015625 C-58.86775391 281.58964844 -58.47330078 280.57773437 -58.06689453 279.53515625 C-53.57533749 266.73578917 -53.65496988 253.36240787 -59.48095703 241.01953125 C-71.8196009 218.70715026 -96.57526439 212.33239286 -118.85693359 203.95263672 C-163.79109209 187.00133116 -210.78923904 169.26171039 -232.94970703 123.2890625 C-245.47775019 94.41086132 -244.49274051 59.87671281 -233.02001953 30.69921875 C-228.05735887 18.81917008 -222.07047434 8.07647805 -213.26220703 -1.3984375 C-212.82569824 -1.88119141 -212.38918945 -2.36394531 -211.93945312 -2.86132812 C-196.69158296 -19.62053921 -176.16560092 -30.83774275 -154.26220703 -36.3984375 C-153.6423291 -36.56682129 -153.02245117 -36.73520508 -152.38378906 -36.90869141 C-96.96000609 -51.94278299 -42.31164437 -38.08885374 0 0 Z " fill="#4D1F60" transform="translate(1372.26220703125,444.3984375)"/>
<path d="M0 0 C0.66 0 1.32 0 2 0 C9.57031203 15.63963177 16.97555022 31.34471429 24.22460938 47.13574219 C27.76494895 54.84499994 31.32090356 62.54707781 34.875 70.25 C35.26278625 71.09065002 35.65057251 71.93130005 36.05010986 72.79742432 C41.0079306 83.54361858 45.98643685 94.27970366 51 105 C56.26356624 116.25506438 61.4849159 127.5291202 66.6875 138.8125 C73.03026089 152.5677969 79.38155842 166.3190707 85.75 180.0625 C86.15091858 180.92773285 86.55183716 181.7929657 86.96490479 182.68441772 C91.98017605 193.50605129 97.01139897 204.32004887 102.0625 215.125 C108.07681561 227.9913677 114.03202304 240.88461898 119.97900391 253.78222656 C125.4525695 265.65233982 130.93978176 277.51605422 136.4375 289.375 C136.83069427 290.22317291 137.22388855 291.07134583 137.6289978 291.94522095 C139.62211212 296.24448951 141.61544634 300.54365606 143.60888672 304.84277344 C147.17836205 312.5410991 150.7458596 320.24034129 154.31350708 327.93951416 C156.29225711 332.20971362 158.27113502 336.47985381 160.25 340.75 C161.04166728 342.45833305 161.83333395 344.16666638 162.625 345.875 C163.016875 346.720625 163.40875 347.56625 163.8125 348.4375 C167.375 356.125 167.375 356.125 168.56221008 358.68690491 C169.3548121 360.39723627 170.14744522 362.10755322 170.94010925 363.81785583 C172.90521878 368.05800244 174.86980777 372.2983886 176.83325195 376.53930664 C180.56277685 384.59336135 184.29805575 392.64462709 188.05014038 400.6882019 C189.83465572 404.51455221 191.61641473 408.34218297 193.39794922 412.16992188 C194.25317282 414.00536578 195.10976682 415.84017182 195.96777344 417.67431641 C197.15249432 420.20708772 198.33260277 422.7419594 199.51171875 425.27734375 C199.86695114 426.03357529 200.22218353 426.78980682 200.58818054 427.56895447 C203 432.77226785 203 432.77226785 203 435 C188.3866774 436.24537835 173.77951499 437.22416494 159.11083984 437.35449219 C157.12059641 437.37441834 155.13057339 437.41348459 153.140625 437.453125 C139.53314311 437.48115277 127.46831291 434.59739233 117.21484375 425.3984375 C106.89579471 414.72680137 101.02685079 399.18326191 95.1875 385.75 C94.48952446 384.16119806 93.79094588 382.57266091 93.09179688 380.984375 C88.51726587 370.57105305 84.0297041 360.12058415 79.57666016 349.65478516 C75.50181415 340.10124649 71.29409903 330.60991989 67.0625 321.125 C62.04532042 309.87907519 57.06896084 298.61805023 52.1875 287.3125 C51.78609802 286.38303055 51.78609802 286.38303055 51.37658691 285.43478394 C50.97796448 284.51174973 50.97796448 284.51174973 50.57128906 283.57006836 C46.46977342 274.07405773 42.31788616 264.60133133 38.14453125 255.13671875 C34.48244631 246.83104686 30.83571593 238.5186404 27.18789673 230.20669556 C21.67096339 217.63602456 16.15302254 205.06579914 10.625 192.5 C10.20347656 191.54158203 9.78195312 190.58316406 9.34765625 189.59570312 C6.91072108 184.05831084 4.46132527 178.52659464 2 173 C-0.37616399 175.94894685 -1.97095249 178.85108465 -3.49609375 182.3125 C-3.96635986 183.37436523 -4.43662598 184.43623047 -4.92114258 185.53027344 C-5.42154053 186.6752832 -5.92193848 187.82029297 -6.4375 189 C-6.96174561 190.18883789 -7.48599121 191.37767578 -8.02612305 192.60253906 C-10.79027827 198.88107801 -13.51332607 205.17698362 -16.2109375 211.484375 C-16.47240067 212.09567261 -16.73386383 212.70697021 -17.00325012 213.33679199 C-18.24954703 216.25357351 -19.49104984 219.17227915 -20.72631836 222.09375 C-23.16044174 227.82493014 -25.67739243 233.504376 -28.33203125 239.13671875 C-32.12343301 247.1841103 -35.69100692 255.32431693 -39.24731445 263.4777832 C-45.93250614 278.80060728 -52.70020113 294.08436093 -59.54849243 309.3348999 C-64.73617188 320.89152665 -69.85102792 332.478128 -74.92462158 344.08526611 C-80.74165642 357.38834395 -86.596628 370.67286759 -92.60836792 383.88931274 C-93.27021501 385.34478827 -93.9305521 386.8009517 -94.58914185 388.25790405 C-97.93761161 395.65716606 -101.41396088 402.9634977 -105.2109375 410.14453125 C-105.53051422 410.75229401 -105.85009094 411.36005676 -106.17935181 411.98623657 C-112.11436407 423.02729921 -120.02405609 431.78624196 -132 436 C-136.71477155 436.98323767 -141.32662187 437.16006384 -146.125 437.16796875 C-147.2896579 437.17418495 -147.2896579 437.17418495 -148.47784424 437.18052673 C-150.98527804 437.19016638 -153.49255059 437.19019129 -156 437.1875 C-156.8499353 437.18756042 -157.69987061 437.18762085 -158.57556152 437.18768311 C-168.82703061 437.17726938 -179.03233035 437.04929577 -189.25 436.125 C-190.13429688 436.04660889 -191.01859375 435.96821777 -191.9296875 435.88745117 C-197.72816486 435.27183514 -197.72816486 435.27183514 -200 433 C-199.27804443 431.44333618 -199.27804443 431.44333618 -198.54150391 429.85522461 C-187.41476809 405.86220858 -176.3109003 381.85878286 -165.23388672 357.84277344 C-161.86594866 350.54106162 -158.49588807 343.24032942 -155.12600708 335.93951416 C-153.25058631 331.87638204 -151.37529989 327.81318791 -149.5 323.75 C-148.75000065 322.1249997 -148.00000065 320.4999997 -147.25 318.875 C-146.87875 318.070625 -146.5075 317.26625 -146.125 316.4375 C-109 236 -71.875 155.5625 -33.6252594 72.68806458 C-32.87439215 71.06118385 -32.12352749 69.43430193 -31.37266541 67.80741882 C-29.51095531 63.77368421 -27.64920199 59.73996957 -25.78735352 55.70629883 C-22.25372045 48.05060451 -18.7205678 40.39468934 -15.18881226 32.73812866 C-13.5099046 29.09845758 -11.83076733 25.45889245 -10.15161133 21.81933594 C-9.34680846 20.07476025 -8.54211963 18.33013195 -7.73754883 16.58544922 C-6.62609727 14.17532485 -5.5142625 11.76537761 -4.40234375 9.35546875 C-4.07096909 8.6366301 -3.73959442 7.91779144 -3.3981781 7.1771698 C-1.11386608 2.22773215 -1.11386608 2.22773215 0 0 Z " fill="#D52A3D" transform="translate(930,394)"/>
<path d="M0 0 C1.32064453 0.5259375 1.32064453 0.5259375 2.66796875 1.0625 C9.5495634 4.13521203 14.70150743 8.71044249 20 14 C20.65097656 14.639375 21.30195312 15.27875 21.97265625 15.9375 C32.28635211 26.81788245 36.53421645 41.18247764 36.421875 55.92553711 C35.81671711 72.61714537 28.06098779 86.77803745 16 98 C2.02689303 108.98775474 -13.6645778 112.0628483 -31 111 C-47.17633341 108.90342409 -61.22558142 99.98955622 -71.125 87.26953125 C-79.98019118 74.04399787 -84.6205576 58.88928995 -81.61767578 42.97363281 C-77.49094031 26.37599343 -67.46059927 12.89381218 -53 4 C-36.73326588 -5.60387982 -17.49574024 -7.19716513 0 0 Z " fill="#53548C" transform="translate(1654,561)"/>
<path d="M0 0 C10.46680038 8.72233365 18.67516552 21.96138701 20.04980469 35.6809082 C21.0138576 53.54579374 17.75095077 68.11749277 6.1953125 82.296875 C1.4995969 87.37453876 -4.26407311 90.82919843 -10.1875 94.3125 C-11.13625 94.89 -12.085 95.4675 -13.0625 96.0625 C-28.32660217 102.16814087 -45.06874741 102.17514948 -60.3125 96.05859375 C-75.80002613 88.80869313 -86.80702512 77.20272724 -93.1875 61.3125 C-96.98900696 48.68420633 -96.88998908 34.3132606 -91.1875 22.3125 C-90.72472656 21.33152344 -90.26195312 20.35054687 -89.78515625 19.33984375 C-83.33259776 7.11311312 -73.78217053 -2.02089943 -61.1875 -7.6875 C-60.55199219 -8.00074219 -59.91648437 -8.31398438 -59.26171875 -8.63671875 C-39.41586941 -17.98936039 -16.86637131 -12.56609038 0 0 Z " fill="#3DBCBF" transform="translate(967.1875,728.6875)"/>
<path d="M0 0 C1.00227127 -0.00960754 2.00454254 -0.01921509 3.03718567 -0.02911377 C4.13181625 -0.03336365 5.22644684 -0.03761353 6.35424805 -0.04199219 C7.47856735 -0.04769226 8.60288666 -0.05339233 9.76127625 -0.05926514 C12.15301568 -0.06873922 14.54476832 -0.07525861 16.93652344 -0.07910156 C20.56233379 -0.08872484 24.1875573 -0.1196911 27.81323242 -0.15136719 C30.13940094 -0.15790534 32.46557351 -0.16315261 34.79174805 -0.16699219 C36.40029411 -0.18551239 36.40029411 -0.18551239 38.04133606 -0.20440674 C47.55745976 -0.17686543 57.79767664 0.78121118 65.3034668 7.16113281 C71.08372101 13.58363749 71.70517478 18.13354977 71.5456543 26.67675781 C71.10938234 32.95344466 69.77487166 37.0905182 65.1784668 41.47363281 C58.37728751 46.72066421 50.6453302 47.59770863 42.3034668 48.16113281 C52.16928285 58.20440341 52.16928285 58.20440341 62.6159668 67.62988281 C65.47975033 70.2285012 67.86084687 73.16892341 70.3034668 76.16113281 C63.56619065 77.16753091 57.87039436 77.80542805 52.01049805 74.05175781 C47.84051931 70.34986478 44.1176904 66.19214749 40.4074707 62.03857422 C30.71081999 51.05471989 30.71081999 51.05471989 17.21948242 46.68334961 C13.24439622 46.65369938 9.27245748 46.93909138 5.3034668 47.16113281 C5.3034668 56.73113281 5.3034668 66.30113281 5.3034668 76.16113281 C1.6734668 76.16113281 -1.9565332 76.16113281 -5.6965332 76.16113281 C-5.71965766 66.39962293 -5.73744881 56.63811952 -5.74834538 46.87658787 C-5.75357398 42.34439187 -5.76067121 37.81221455 -5.77197266 33.2800293 C-5.78280235 28.90990451 -5.78881021 24.53979773 -5.79141045 20.16966057 C-5.79326455 18.49862319 -5.79688488 16.82758684 -5.80226326 15.15655708 C-5.80947479 12.8241573 -5.8105241 10.49183288 -5.81005859 8.15942383 C-5.81365387 7.46171371 -5.81724915 6.7640036 -5.82095337 6.04515076 C-5.80880119 0.45434636 -5.51624373 0.04254197 0 0 Z " fill="#D34476" transform="translate(1697.696533203125,915.8388671875)"/>
<path d="M0 0 C2.96948242 0.55249023 2.96948242 0.55249023 4.60864258 2.28735352 C5.02936035 3.09930176 5.45007812 3.91125 5.88354492 4.74780273 C6.62846191 6.12500488 6.62846191 6.12500488 7.38842773 7.5300293 C7.91017578 8.52744141 8.43192383 9.52485352 8.96948242 10.55249023 C10.13702889 12.59553023 11.31181115 14.6344482 12.49291992 16.66967773 C13.77795199 18.92161015 15.06175163 21.17424618 16.34448242 23.42749023 C17.3940822 25.26943159 18.44395139 27.11121917 19.49388123 28.95297241 C20.21728907 30.22196102 20.94056488 31.4910249 21.66371155 32.76016235 C24.23122343 37.26423437 26.81087225 41.76121183 29.39526367 46.25561523 C30.4700407 48.12725852 31.54455635 49.99905157 32.61895752 51.87091064 C33.62833887 53.62763896 34.64042433 55.38281267 35.65258789 57.13793945 C39.31096007 63.51671232 42.74987428 69.94090488 45.96948242 76.55249023 C41.67948242 76.55249023 37.38948242 76.55249023 32.96948242 76.55249023 C30.32948242 71.60249023 27.68948242 66.65249023 24.96948242 61.55249023 C8.46948242 61.55249023 -8.03051758 61.55249023 -25.03051758 61.55249023 C-27.67051758 66.17249023 -30.31051758 70.79249023 -33.03051758 75.55249023 C-34.03051758 76.55249023 -34.03051758 76.55249023 -36.75317383 76.65014648 C-39.84562174 76.6175944 -42.93806966 76.58504232 -46.03051758 76.55249023 C-42.21607507 68.70028321 -38.1247774 61.11133182 -33.65551758 53.61499023 C-27.42431347 43.06409278 -21.46803386 32.3826659 -15.62475586 21.61328125 C-13.78609501 18.24429029 -11.91706017 14.89486943 -10.03051758 11.55249023 C-9.43094238 10.46403809 -8.83136719 9.37558594 -8.21362305 8.25415039 C-7.62597168 7.24529785 -7.03832031 6.23644531 -6.43286133 5.19702148 C-5.92102295 4.29959229 -5.40918457 3.40216309 -4.88183594 2.47753906 C-3.03051758 0.55249023 -3.03051758 0.55249023 0 0 Z " fill="#D34376" transform="translate(1236.030517578125,915.447509765625)"/>
<path d="M0 0 C0.99 1.98 0.99 1.98 2 4 C-0.64 5.98 -3.28 7.96 -6 10 C-10 8 -10 8 -11.96484375 6.96484375 C-12.94130859 6.45630859 -12.94130859 6.45630859 -13.9375 5.9375 C-14.58589844 5.59589844 -15.23429688 5.25429688 -15.90234375 4.90234375 C-23.58288442 1.59842402 -34.72651442 1.72708969 -42.83203125 3.68359375 C-45.05587211 4.62220259 -46.97930303 5.68304882 -49 7 C-49.70511719 7.4125 -50.41023437 7.825 -51.13671875 8.25 C-56.84026017 11.96099183 -60.12572757 16.44864406 -62 23 C-63.0325811 30.93902516 -63.11687098 38.32461383 -58.54296875 45.140625 C-52.32668228 52.63164363 -43.97781931 57.31301357 -34.22265625 58.2734375 C-23.16591786 58.62878385 -14.65664355 55.92531484 -6 49 C-5.67 44.71 -5.34 40.42 -5 36 C-14.24 36 -23.48 36 -33 36 C-33 32.37 -33 28.74 -33 25 C-20.13 25 -7.26 25 6 25 C6 39.19 6 53.38 6 68 C4.02 68 2.04 68 0 68 C-2.375 65.5 -2.375 65.5 -4 63 C-4.64324219 63.33773437 -5.28648437 63.67546875 -5.94921875 64.0234375 C-19.4154718 70.67011875 -33.7387561 71.63771625 -48.1875 67.4375 C-58.95697087 63.44028651 -66.99230599 56.69182276 -71.80712891 46.24951172 C-73.94397415 41.13548883 -74.47832929 36.63687981 -74.375 31.125 C-74.36412354 30.33488525 -74.35324707 29.54477051 -74.34204102 28.73071289 C-74.00359517 16.30528019 -69.77534838 8.34030945 -60.8125 -0.25 C-44.08449925 -13.86757884 -16.88133068 -11.98691709 0 0 Z " fill="#D34376" transform="translate(924,924)"/>
<path d="M0 0 C0.65202896 -0.00175232 1.30405792 -0.00350464 1.97584534 -0.00531006 C4.14082465 -0.00972751 6.30572291 -0.00679098 8.47070312 -0.00341797 C9.96903499 -0.00409104 11.46736675 -0.00506109 12.96569824 -0.00631714 C16.10979245 -0.00779397 19.2538583 -0.00564005 22.39794922 -0.00097656 C26.43681851 0.00472073 30.47562137 0.00144164 34.51448822 -0.00454903 C37.60960393 -0.00815505 40.70470377 -0.00701586 43.79981995 -0.00442123 C45.28943388 -0.00375208 46.77904923 -0.00457999 48.2686615 -0.00690079 C50.34711548 -0.009428 52.42546044 -0.0055858 54.50390625 0 C56.28142273 0.00119339 56.28142273 0.00119339 58.09484863 0.00241089 C60.75195312 0.12939453 60.75195312 0.12939453 61.75195312 1.12939453 C61.75195312 4.42939453 61.75195312 7.72939453 61.75195312 11.12939453 C42.61195312 11.12939453 23.47195313 11.12939453 3.75195312 11.12939453 C3.75195312 18.38939453 3.75195312 25.64939453 3.75195312 33.12939453 C21.24195313 33.12939453 38.73195313 33.12939453 56.75195312 33.12939453 C56.75195312 36.42939453 56.75195312 39.72939453 56.75195312 43.12939453 C39.26195312 43.12939453 21.77195312 43.12939453 3.75195312 43.12939453 C3.75195312 50.38939453 3.75195312 57.64939453 3.75195312 65.12939453 C22.89195313 65.12939453 42.03195312 65.12939453 61.75195312 65.12939453 C61.75195312 68.75939453 61.75195312 72.38939453 61.75195312 76.12939453 C38.98195313 76.12939453 16.21195313 76.12939453 -7.24804688 76.12939453 C-7.28815568 57.45205898 -7.28815568 57.45205898 -7.296875 49.51806641 C-7.30286321 44.09479805 -7.30996291 38.6715465 -7.32348633 33.24829102 C-7.33431602 28.87816623 -7.34032388 24.50805945 -7.34292412 20.13792229 C-7.34477822 18.4668849 -7.34839855 16.79584856 -7.35377693 15.1248188 C-7.36098846 12.79241902 -7.36203777 10.4600946 -7.36157227 8.12768555 C-7.36516754 7.42997543 -7.36876282 6.73226532 -7.37246704 6.01341248 C-7.35839995 -0.45837729 -6.25925798 0.00420234 0 0 Z " fill="#D34577" transform="translate(1868.248046875,915.87060546875)"/>
<path d="M0 0 C-1.87636662 2.64081227 -3.57942933 4.70793703 -6.25 6.5625 C-9.80082749 7.12740437 -11.60250597 5.83694119 -14.671875 4.16015625 C-22.30640073 0.35570299 -30.35675779 -0.2871382 -38.75 -0.375 C-39.93783081 -0.39578613 -39.93783081 -0.39578613 -41.1496582 -0.41699219 C-47.30896023 -0.36804239 -53.07480054 0.62327544 -58 4.625 C-59.60177692 8.42922018 -59.87072258 11.9589542 -59 16 C-53.24136082 22.23852578 -43.24326176 21.85795829 -35.26953125 22.421875 C-34.23103027 22.49776855 -33.1925293 22.57366211 -32.12255859 22.65185547 C-30.04713094 22.79725949 -27.97054898 22.92726343 -25.89306641 23.03955078 C-16.08547836 23.70406491 -7.09582255 25.90417745 0 33 C3.27000967 37.9050145 2.53583275 43.26862441 2 49 C0.60293591 54.26199587 -2.16867866 57.98748147 -6.75390625 60.90625 C-14.31699077 64.58914333 -22.61282749 66.63534033 -31 67 C-31.7528125 67.0515625 -32.505625 67.103125 -33.28125 67.15625 C-47.35656178 67.70463877 -62.30207308 62.79861795 -74 55 C-74 54.34 -74 53.68 -74 53 C-72.25 51.4921875 -72.25 51.4921875 -70 49.875 C-69.2575 49.33617187 -68.515 48.79734375 -67.75 48.2421875 C-67.1725 47.83226562 -66.595 47.42234375 -66 47 C-63.80155667 48.08295411 -61.67521725 49.19153855 -59.5625 50.4375 C-46.75020998 56.05692545 -31.44737809 57.00512592 -18 53 C-14.38207732 51.28931222 -12.24839591 49.37259387 -10 46 C-9.49146636 41.9272789 -9.49146636 41.9272789 -11.23828125 38.4140625 C-17.19413355 33.63353361 -25.88754115 33.77375761 -33.1875 33.5 C-58.6461493 32.51626145 -58.6461493 32.51626145 -67 25 C-72.03543618 19.44810882 -72.42163548 15.72030698 -72.33203125 8.33203125 C-71.74448227 2.43580443 -69.42497778 -0.8323668 -65.0859375 -4.7109375 C-46.70665235 -18.41185916 -17.30773022 -12.98079766 0 0 Z " fill="#D34275" transform="translate(656,927)"/>
<path d="M0 0 C6.74818753 0 6.74818753 0 9.3671875 2.59765625 C9.93848389 3.14832764 10.50978027 3.69899902 11.09838867 4.26635742 C11.68467041 4.85908447 12.27095215 5.45181152 12.875 6.0625 C14.11777015 7.26897069 15.36125385 8.47470681 16.60546875 9.6796875 C17.19505371 10.25944336 17.78463867 10.83919922 18.39208984 11.43652344 C20.26571067 13.25836792 22.20348259 14.98691365 24.1875 16.6875 C27.33953227 19.40756211 30.42441528 22.19368672 33.5 25 C36.64083556 27.86471815 39.79100756 30.71185902 43 33.5 C46.20899244 36.28814098 49.35916444 39.13528185 52.5 42 C60.41001432 49.42396854 60.41001432 49.42396854 69 56 C69.33 37.85 69.66 19.7 70 1 C73.3 1 76.6 1 80 1 C80 25.75 80 50.5 80 76 C73.26210351 76 73.26210351 76 69.125 71.9375 C67.82949219 70.69806641 67.82949219 70.69806641 66.5078125 69.43359375 C65.68023438 68.63050781 64.85265625 67.82742188 64 67 C62.67568381 65.82310769 61.34305479 64.65546212 60 63.5 C54.41020011 58.62856797 48.92465102 53.6410485 43.421875 48.671875 C39.00015067 44.68418496 34.55695465 40.7263585 30.06640625 36.81640625 C26.87774368 34.0135176 23.7347172 31.16043406 20.58984375 28.30859375 C17.43262208 25.49423779 14.21127382 22.75252041 11 20 C10.67 38.48 10.34 56.96 10 76 C6.7 76 3.4 76 0 76 C0 50.92 0 25.84 0 0 Z " fill="#D23F73" transform="translate(1019,916)"/>
<path d="M0 0 C1.64574566 -0.02688151 3.29161413 -0.04634123 4.9375 -0.0625 C5.85402344 -0.07410156 6.77054688 -0.08570313 7.71484375 -0.09765625 C10 0 10 0 11 1 C11.10649822 2.36934861 11.14617465 3.74399642 11.15771484 5.11743164 C11.16797699 5.99246841 11.17823914 6.86750519 11.18881226 7.76905823 C11.19611359 8.72312057 11.20341492 9.67718292 11.2109375 10.66015625 C11.2390268 12.67123181 11.26769137 14.6822994 11.296875 16.69335938 C11.33800223 19.87068281 11.37487796 23.0478608 11.40136719 26.2253418 C11.42912235 29.2872626 11.47501841 32.34850151 11.5234375 35.41015625 C11.52669037 36.35004898 11.52994324 37.28994171 11.53329468 38.25831604 C11.680091 46.20758245 13.16854592 53.16854592 19 59 C27.79962796 65.48195293 36.14086142 67.09629986 47 66 C54.27641105 64.16596908 59.71975848 61.16262366 64.59765625 55.453125 C68.56560413 48.51197941 69.45542317 41.5920993 69.51171875 33.71484375 C69.53864555 32.30230064 69.53864555 32.30230064 69.56611633 30.86122131 C69.61981099 27.88669158 69.65398296 24.91231847 69.6875 21.9375 C69.72070919 19.90687943 69.75520213 17.87627943 69.79101562 15.84570312 C69.87551356 10.89724922 69.94251814 5.94883846 70 1 C73.3 1 76.6 1 80 1 C80.09951908 7.63447793 80.17177505 14.26851303 80.21972656 20.90356445 C80.23973464 23.15657123 80.26694991 25.40952679 80.30175781 27.66235352 C80.35075342 30.91695867 80.37307756 34.17087217 80.390625 37.42578125 C80.41127014 38.41894852 80.43191528 39.41211578 80.45318604 40.43537903 C80.45674 51.73004971 76.68055252 61.50039303 68.6875 69.5625 C59.72979224 77.01345839 48.10356077 78.92970872 36.79296875 78.3515625 C25.22606351 77.27944976 14.91376903 73.94998221 7.125 64.9375 C-1.6645932 51.98492824 -0.48861723 37.67648911 -0.25 22.6875 C-0.22989946 20.48243814 -0.211655 18.27735854 -0.1953125 16.07226562 C-0.15161071 10.71445137 -0.08498238 5.35731028 0 0 Z " fill="#D34275" transform="translate(1523,916)"/>
<path d="M0 0 C28.05 0 56.1 0 85 0 C85 3.63 85 7.26 85 11 C72.79 11 60.58 11 48 11 C48 32.45 48 53.9 48 76 C44.37 76 40.74 76 37 76 C37 54.55 37 33.1 37 11 C24.79 11 12.58 11 0 11 C0 7.37 0 3.74 0 0 Z " fill="#D34476" transform="translate(1349,916)"/>
<path d="M0 0 C6.12055431 -0.09211537 12.23867835 -0.17166833 18.359375 -0.21972656 C20.43888525 -0.23977159 22.51833963 -0.26701513 24.59765625 -0.30175781 C27.59649487 -0.35058948 30.59458463 -0.37304028 33.59375 -0.390625 C34.51490601 -0.41127014 35.43606201 -0.43191528 36.38513184 -0.45318604 C43.2007411 -0.45552517 48.49809687 0.92137476 53.69616699 5.4911499 C56.00934277 8.16805367 55.39820389 11.18190989 55.28515625 14.55859375 C54.79247337 18.77676912 53.2683909 20.94707754 50.05981445 23.6105957 C45.48649572 25.68725388 41.19368583 25.36964511 36.23046875 25.29296875 C34.67625969 25.28660149 34.67625969 25.28660149 33.09065247 25.28010559 C29.78933458 25.26334605 26.48863263 25.2256981 23.1875 25.1875 C20.94597237 25.17244967 18.70443515 25.15876188 16.46289062 25.14648438 C10.97483362 25.11600646 5.48810427 25.05727824 0 25 C0 16.75 0 8.5 0 0 Z " fill="#FEFCFD" transform="translate(1703,927)"/>
<path d="M0 0 C3.3 0 6.6 0 10 0 C10 25.08 10 50.16 10 76 C6.7 76 3.4 76 0 76 C0 50.92 0 25.84 0 0 Z " fill="#D23F72" transform="translate(748,916)"/>
<path d="M0 0 C0.66 0 1.32 0 2 0 C4.10347382 3.75151311 6.20294844 7.50522762 8.29882812 11.26098633 C9.0116134 12.53698192 9.72546686 13.81238145 10.44042969 15.0871582 C11.47095114 16.92501714 12.49754688 18.76502179 13.5234375 20.60546875 C14.14138184 21.71043701 14.75932617 22.81540527 15.39599609 23.95385742 C17 27 17 27 19 32 C7.12 32 -4.76 32 -17 32 C-15.56015869 28.40039673 -14.13030925 25.24296189 -12.28515625 21.875 C-11.76373047 20.92109375 -11.24230469 19.9671875 -10.70507812 18.984375 C-9.89200195 17.50710938 -9.89200195 17.50710938 -9.0625 16 C-8.25522461 14.52273438 -8.25522461 14.52273438 -7.43164062 13.015625 C-5.96428982 10.33784549 -4.49679894 7.66143651 -3 5 C-2.48751709 4.06929687 -1.97503418 3.13859375 -1.44702148 2.1796875 C-0.73074585 1.10074219 -0.73074585 1.10074219 0 0 Z " fill="#FDF8FA" transform="translate(1235,933)"/>
</svg>
